<svg width="32" height="32" fill="none" xmlns="http://www.w3.org/2000/svg"><path d="M28.929 6.146H3.075V32h25.854V6.146z" fill="#C7D300"/><path d="M22.123 6.146c0 3.352-2.743 6.095-6.146 6.095-3.404 0-6.146-2.743-6.096-6.146C9.881 2.743 12.624 0 16.027 0c3.353 0 6.096 2.743 6.096 6.146z" fill="#00785A"/><path fill-rule="evenodd" clip-rule="evenodd" d="M19.329 18.997a3.226 3.226 0 00-2.082-2.641c-1.727-.66-3.708.152-4.369 1.93-.66 1.727.153 3.708 1.93 4.368 1.118.457 2.439.254 3.353-.559l-.61-.71c-.66.558-1.625.71-2.438.405-.813-.304-1.32-1.015-1.473-1.777h5.689v-1.016zm-2.438-1.778c.762.305 1.32.965 1.473 1.778H13.64c.025-.076.038-.14.05-.203.014-.064.026-.127.052-.204.508-1.27 1.93-1.879 3.149-1.37z" fill="#00785A"/><path d="M8.307 18.997h3.301v.965a3.528 3.528 0 01-2.133 2.692c-1.727.66-3.708-.203-4.368-1.93-.66-1.727.203-3.708 1.93-4.368 1.117-.407 2.438-.204 3.352.558l-.61.711a2.394 2.394 0 00-2.387-.406 2.481 2.481 0 00-1.371 3.15 2.481 2.481 0 003.15 1.37c.812-.304 1.37-.964 1.523-1.777H8.307v-.965zM23.697 18.997H27v.965a3.528 3.528 0 01-2.133 2.692c-1.727.66-3.708-.203-4.369-1.93-.66-1.727.203-3.708 1.93-4.368 1.118-.407 2.439-.204 3.353.558l-.61.711a2.394 2.394 0 00-2.387-.406 2.481 2.481 0 00-1.372 3.15 2.481 2.481 0 003.15 1.37c.812-.304 1.371-.964 1.523-1.777h-2.387v-.965z" fill="#00785A"/><path d="M15.926 1.93a4.205 4.205 0 00-4.216 4.216c0 2.286 1.93 4.216 4.216 4.216a4.171 4.171 0 003.708-2.184l-1.016-.559a2.976 2.976 0 01-2.641 1.575 3.057 3.057 0 01-3.048-3.048 3.057 3.057 0 013.048-3.048c1.066 0 2.082.61 2.64 1.575l1.017-.559a4.23 4.23 0 00-3.708-2.184z" fill="#fff"/><path d="M15.824 5.537h4.42v1.168h-4.42V5.537z" fill="#fff"/></svg>