<svg width="32" height="32" viewBox="0 0 32 32" fill="none" xmlns="http://www.w3.org/2000/svg">
<path d="M28.9289 6.146H3.07495V32H28.9289V6.146Z" fill="#C7D300"/>
<path d="M22.1226 6.14604C22.1226 9.49842 19.3797 12.2413 15.9766 12.2413C12.5734 12.2413 9.83052 9.49842 9.88131 6.09524C9.88131 2.74286 12.6242 0 16.0273 0C19.3797 0 22.1226 2.74286 22.1226 6.14604Z" fill="#00785A"/>
<path fill-rule="evenodd" clip-rule="evenodd" d="M19.329 18.9968C19.1767 17.7778 18.364 16.7619 17.2465 16.3556C15.5195 15.6953 13.5385 16.508 12.8782 18.2857C12.2179 20.0127 13.0306 21.9937 14.8084 22.654C15.9258 23.1111 17.2465 22.908 18.1608 22.0953L17.5513 21.3842C16.8909 21.9429 15.9259 22.0953 15.1132 21.7905C14.3005 21.4857 13.7925 20.7746 13.6401 20.0127H19.329V18.9968ZM16.8909 17.2191C17.6528 17.5238 18.2116 18.1841 18.3639 18.9968H13.6401C13.6655 18.9207 13.6782 18.8572 13.6909 18.7937C13.7036 18.7302 13.7163 18.6667 13.7417 18.5905C14.2497 17.3207 15.6719 16.7111 16.8909 17.2191Z" fill="#00785A"/>
<path d="M8.3066 18.9969H11.6082V19.962C11.405 21.181 10.5923 22.1969 9.47485 22.654C7.74787 23.3143 5.76693 22.4509 5.10661 20.7239C4.44629 18.9969 5.30978 17.0159 7.03676 16.3556C8.15422 15.9493 9.47488 16.1524 10.3892 16.9143L9.77963 17.6255C9.11932 17.0667 8.20502 16.9143 7.39232 17.2191C6.17328 17.727 5.56375 19.0985 6.02089 20.3683C6.52883 21.5874 7.90026 22.1969 9.1701 21.7397C9.9828 21.435 10.5415 20.7747 10.6939 19.962H8.3066V18.9969Z" fill="#00785A"/>
<path d="M23.6972 18.9969H26.9988V19.962C26.7956 21.181 25.983 22.1969 24.8655 22.654C23.1385 23.3143 21.1576 22.4509 20.4972 20.7239C19.8369 18.9969 20.7004 17.0159 22.4274 16.3556C23.5448 15.9493 24.8655 16.1524 25.7798 16.9143L25.1703 17.6255C24.5099 17.0667 23.5956 16.9143 22.7829 17.2191C21.5639 17.727 20.9544 19.0985 21.4115 20.3683C21.9195 21.5874 23.2909 22.1969 24.5607 21.7397C25.3734 21.435 25.9322 20.7747 26.0845 19.962H23.6972V18.9969Z" fill="#00785A"/>
<path d="M15.9258 1.93011C13.5893 1.93011 11.71 3.80947 11.71 6.14598C11.71 8.4317 13.6401 10.3619 15.9258 10.3619C17.5004 10.3619 18.8719 9.54916 19.6338 8.17773L18.6179 7.619C18.11 8.58408 17.0941 9.1936 15.9766 9.1936C14.3005 9.1936 12.929 7.82218 12.929 6.14598C12.929 4.46979 14.3005 3.09836 15.9766 3.09836C17.0433 3.09836 18.0592 3.70789 18.6179 4.67297L19.6338 4.11424C18.8719 2.74281 17.4496 1.93011 15.9258 1.93011Z" fill="white"/>
<path d="M15.8242 5.5365H20.2433V6.70476H15.8242V5.5365Z" fill="white"/>
</svg>
